<?xml version="1.0" encoding="iso-8859-1"?>
<!-- Generator: Adobe Illustrator 19.0.0, SVG Export Plug-In . SVG Version: 6.00 Build 0)  -->
<svg version="1.1" id="Capa_1" xmlns="http://www.w3.org/2000/svg" xmlns:xlink="http://www.w3.org/1999/xlink" x="0px" y="0px"
	 viewBox="0 0 511.875 511.875" style="enable-background:new 0 0 511.875 511.875;" xml:space="preserve">
<polygon style="fill:#D7E9FF;" points="423.897,83.979 423.897,67.983 55.986,67.983 55.986,83.979 39.99,507.875 439.893,507.875 
	"/>
<polygon style="fill:#FFFFFF;" points="55.986,83.979 39.99,507.875 55.986,507.875 71.982,83.979 "/>
<polygon style="fill:#94C1FF;" points="423.897,83.979 439.893,507.875 423.897,507.875 407.901,83.979 "/>
<circle style="fill:#FFFFFF;" cx="239.938" cy="291.927" r="87.979"/>
<polygon style="fill:#94C1FF;" points="471.885,491.879 439.893,507.875 423.897,83.979 423.897,67.983 423.897,3.999 
	431.895,3.999 "/>
<rect x="55.988" y="3.999" style="fill:#FFD2A6;" width="367.91" height="63.984"/>
<rect x="55.988" y="3.999" style="fill:#D7E9FF;" width="367.91" height="63.984"/>
<path style="fill:#656D78;" d="M242.819,328.958l-32.152,45.91c-7.838-2.718-15.113-6.482-21.674-11.278l38.951-55.666
	l14.477,20.792L242.819,328.958z"/>
<path style="fill:#5C9EFF;" d="M242.819,328.958l-32.152,45.91c-7.838-2.718-15.113-6.482-21.674-11.278l38.951-55.666
	l14.477,20.792L242.819,328.958z"/>
<path style="fill:#94C1FF;" d="M279.932,275.932l38.709,55.346c-14.395,28.876-44.231,48.629-78.7,48.629
	c-10.318,0-20.155-1.757-29.274-5.038l32.152-45.91L279.932,275.932z"/>
<polygon style="fill:#5C9EFF;" points="455.889,467.885 471.885,491.879 439.893,507.875 "/>
<path style="fill:#D7E9FF;" d="M207.949,243.94c8.799,0,15.996,7.197,15.996,15.996c0,8.795-7.197,15.996-15.996,15.996
	s-15.996-7.201-15.996-15.996C191.953,251.137,199.15,243.94,207.949,243.94z"/>
<rect x="55.988" y="67.987" style="fill:#94C1FF;" width="367.91" height="15.996"/>
<g>
	<polygon style="fill:#FFFFFF;" points="255.938,67.983 255.938,107.973 239.941,99.975 223.945,107.973 223.945,67.983 
		223.945,3.999 255.938,3.999 	"/>
	<rect x="55.988" y="3.999" style="fill:#FFFFFF;" width="15.996" height="63.984"/>
</g>
<rect x="407.898" y="3.999" style="fill:#94C1FF;" width="15.996" height="63.984"/>
<g>
	<path style="fill:#116FFF;" d="M39.994,511.875c-0.051,0-0.102,0-0.156,0c-2.207-0.086-3.929-1.945-3.843-4.147l15.996-423.9
		c0.082-2.21,1.753-3.96,4.147-3.843c2.206,0.082,3.929,1.937,3.843,4.147L43.985,508.024
		C43.903,510.179,42.13,511.875,39.994,511.875z"/>
	<path style="fill:#116FFF;" d="M439.885,511.875c-2.133,0-3.905-1.695-3.991-3.851L419.898,84.131
		c-0.086-2.21,1.64-4.065,3.843-4.147c2.305-0.105,4.062,1.636,4.147,3.843l15.996,423.9c0.086,2.202-1.633,4.062-3.843,4.147
		C439.987,511.875,439.94,511.875,439.885,511.875z"/>
	<path style="fill:#116FFF;" d="M439.893,511.875H39.99c-2.21,0-3.999-1.789-3.999-3.999s1.789-3.999,3.999-3.999h399.903
		c2.211,0,3.999,1.789,3.999,3.999S442.104,511.875,439.893,511.875z"/>
	<path style="fill:#116FFF;" d="M215.947,7.998H55.986c-2.21,0-3.999-1.789-3.999-3.999S53.776,0,55.986,0h159.961
		c2.21,0,3.999,1.789,3.999,3.999S218.158,7.998,215.947,7.998z"/>
	<path style="fill:#116FFF;" d="M439.893,511.875c-0.5,0-1-0.094-1.484-0.289c-2.054-0.82-3.054-3.147-2.233-5.194l15.996-39.99
		c0.82-2.054,3.163-3.054,5.202-2.226c2.046,0.82,3.046,3.147,2.226,5.193l-15.996,39.99
		C442.978,510.921,441.479,511.875,439.893,511.875z"/>
	<path style="fill:#116FFF;" d="M471.885,495.878c-1.289,0-2.562-0.625-3.327-1.781l-15.996-23.994
		c-1.227-1.835-0.734-4.318,1.108-5.545c1.836-1.227,4.32-0.727,5.546,1.109l15.996,23.994c1.227,1.835,0.727,4.318-1.108,5.545
		C473.417,495.66,472.651,495.878,471.885,495.878z"/>
	<path style="fill:#116FFF;" d="M439.893,511.875c-1.469,0-2.874-0.812-3.577-2.211c-0.992-1.976-0.188-4.373,1.788-5.365
		l31.992-15.996c1.969-0.992,4.374-0.188,5.366,1.789c0.984,1.976,0.188,4.373-1.788,5.365l-31.992,15.996
		C441.104,511.742,440.495,511.875,439.893,511.875z"/>
	<path style="fill:#116FFF;" d="M471.877,495.878c-2.062,0-3.812-1.586-3.983-3.671l-39.99-487.88
		c-0.18-2.203,1.46-4.132,3.663-4.315c2.289-0.109,4.132,1.457,4.312,3.659l39.99,487.881c0.18,2.202-1.461,4.132-3.655,4.312
		C472.096,495.871,471.987,495.878,471.877,495.878z"/>
	<path style="fill:#116FFF;" d="M215.947,71.982H55.986c-2.21,0-3.999-1.789-3.999-3.999c0-2.21,1.789-3.999,3.999-3.999h159.961
		c2.21,0,3.999,1.789,3.999,3.999C219.946,70.193,218.158,71.982,215.947,71.982z"/>
	<path style="fill:#116FFF;" d="M423.897,71.982c-2.211,0-3.999-1.789-3.999-3.999V3.999c0-2.21,1.788-3.999,3.999-3.999
		s3.999,1.789,3.999,3.999v63.984C427.896,70.193,426.108,71.982,423.897,71.982z"/>
	<path style="fill:#116FFF;" d="M55.986,71.982c-2.21,0-3.999-1.789-3.999-3.999V3.999c0-2.21,1.789-3.999,3.999-3.999
		s3.999,1.789,3.999,3.999v63.984C59.985,70.193,58.197,71.982,55.986,71.982z"/>
	<path style="fill:#116FFF;" d="M55.986,75.981c-2.21,0-3.999-1.789-3.999-3.999v-3.999c0-2.21,1.789-3.999,3.999-3.999
		s3.999,1.789,3.999,3.999v3.999C59.985,74.192,58.197,75.981,55.986,75.981z"/>
	<path style="fill:#116FFF;" d="M71.982,75.981c-2.21,0-3.999-1.789-3.999-3.999v-3.999c0-2.21,1.789-3.999,3.999-3.999
		s3.999,1.789,3.999,3.999v3.999C75.981,74.192,74.193,75.981,71.982,75.981z"/>
	<path style="fill:#116FFF;" d="M87.979,75.981c-2.21,0-3.999-1.789-3.999-3.999v-3.999c0-2.21,1.789-3.999,3.999-3.999
		s3.999,1.789,3.999,3.999v3.999C91.978,74.192,90.189,75.981,87.979,75.981z"/>
	<path style="fill:#116FFF;" d="M103.975,75.981c-2.21,0-3.999-1.789-3.999-3.999v-3.999c0-2.21,1.789-3.999,3.999-3.999
		s3.999,1.789,3.999,3.999v3.999C107.974,74.192,106.185,75.981,103.975,75.981z"/>
	<path style="fill:#116FFF;" d="M119.971,75.981c-2.21,0-3.999-1.789-3.999-3.999v-3.999c0-2.21,1.789-3.999,3.999-3.999
		s3.999,1.789,3.999,3.999v3.999C123.97,74.192,122.181,75.981,119.971,75.981z"/>
	<path style="fill:#116FFF;" d="M135.967,75.981c-2.21,0-3.999-1.789-3.999-3.999v-3.999c0-2.21,1.789-3.999,3.999-3.999
		s3.999,1.789,3.999,3.999v3.999C139.966,74.192,138.177,75.981,135.967,75.981z"/>
	<path style="fill:#116FFF;" d="M151.963,75.981c-2.21,0-3.999-1.789-3.999-3.999v-3.999c0-2.21,1.789-3.999,3.999-3.999
		s3.999,1.789,3.999,3.999v3.999C155.962,74.192,154.173,75.981,151.963,75.981z"/>
	<path style="fill:#116FFF;" d="M167.959,75.981c-2.21,0-3.999-1.789-3.999-3.999v-3.999c0-2.21,1.789-3.999,3.999-3.999
		s3.999,1.789,3.999,3.999v3.999C171.958,74.192,170.169,75.981,167.959,75.981z"/>
	<path style="fill:#116FFF;" d="M183.955,75.981c-2.21,0-3.999-1.789-3.999-3.999v-3.999c0-2.21,1.789-3.999,3.999-3.999
		s3.999,1.789,3.999,3.999v3.999C187.954,74.192,186.166,75.981,183.955,75.981z"/>
	<path style="fill:#116FFF;" d="M199.951,75.981c-2.21,0-3.999-1.789-3.999-3.999v-3.999c0-2.21,1.789-3.999,3.999-3.999
		s3.999,1.789,3.999,3.999v3.999C203.95,74.192,202.162,75.981,199.951,75.981z"/>
	<path style="fill:#116FFF;" d="M223.945,111.972c-2.21,0-3.999-1.789-3.999-3.999V3.999c0-2.21,1.789-3.999,3.999-3.999
		s3.999,1.789,3.999,3.999v103.975C227.944,110.184,226.156,111.972,223.945,111.972z"/>
	<path style="fill:#116FFF;" d="M255.938,111.972c-2.21,0-3.999-1.789-3.999-3.999V3.999c0-2.21,1.789-3.999,3.999-3.999
		c2.211,0,4,1.789,4,3.999v103.975C259.937,110.184,258.149,111.972,255.938,111.972z"/>
	<path style="fill:#116FFF;" d="M279.932,75.981c-2.211,0-3.999-1.789-3.999-3.999v-3.999c0-2.21,1.788-3.999,3.999-3.999
		s3.999,1.789,3.999,3.999v3.999C283.931,74.192,282.143,75.981,279.932,75.981z"/>
	<path style="fill:#116FFF;" d="M295.928,75.981c-2.211,0-3.999-1.789-3.999-3.999v-3.999c0-2.21,1.788-3.999,3.999-3.999
		s3.999,1.789,3.999,3.999v3.999C299.927,74.192,298.139,75.981,295.928,75.981z"/>
	<path style="fill:#116FFF;" d="M311.924,75.981c-2.211,0-3.999-1.789-3.999-3.999v-3.999c0-2.21,1.788-3.999,3.999-3.999
		s3.999,1.789,3.999,3.999v3.999C315.923,74.192,314.135,75.981,311.924,75.981z"/>
	<path style="fill:#116FFF;" d="M327.92,75.981c-2.211,0-3.999-1.789-3.999-3.999v-3.999c0-2.21,1.788-3.999,3.999-3.999
		s3.999,1.789,3.999,3.999v3.999C331.919,74.192,330.131,75.981,327.92,75.981z"/>
	<path style="fill:#116FFF;" d="M343.917,75.981c-2.211,0-3.999-1.789-3.999-3.999v-3.999c0-2.21,1.788-3.999,3.999-3.999
		s3.999,1.789,3.999,3.999v3.999C347.916,74.192,346.127,75.981,343.917,75.981z"/>
	<path style="fill:#116FFF;" d="M359.913,75.981c-2.211,0-3.999-1.789-3.999-3.999v-3.999c0-2.21,1.788-3.999,3.999-3.999
		s3.999,1.789,3.999,3.999v3.999C363.912,74.192,362.124,75.981,359.913,75.981z"/>
	<path style="fill:#116FFF;" d="M375.909,75.981c-2.211,0-3.999-1.789-3.999-3.999v-3.999c0-2.21,1.788-3.999,3.999-3.999
		s3.999,1.789,3.999,3.999v3.999C379.908,74.192,378.12,75.981,375.909,75.981z"/>
	<path style="fill:#116FFF;" d="M391.905,75.981c-2.211,0-3.999-1.789-3.999-3.999v-3.999c0-2.21,1.788-3.999,3.999-3.999
		s3.999,1.789,3.999,3.999v3.999C395.904,74.192,394.116,75.981,391.905,75.981z"/>
	<path style="fill:#116FFF;" d="M407.901,75.981c-2.211,0-3.999-1.789-3.999-3.999v-3.999c0-2.21,1.788-3.999,3.999-3.999
		s3.999,1.789,3.999,3.999v3.999C411.9,74.192,410.112,75.981,407.901,75.981z"/>
	<path style="fill:#116FFF;" d="M423.897,75.981c-2.211,0-3.999-1.789-3.999-3.999v-3.999c0-2.21,1.788-3.999,3.999-3.999
		s3.999,1.789,3.999,3.999v3.999C427.896,74.192,426.108,75.981,423.897,75.981z"/>
	<path style="fill:#116FFF;" d="M423.897,71.982H263.936c-2.211,0-3.999-1.789-3.999-3.999c0-2.21,1.788-3.999,3.999-3.999h159.961
		c2.211,0,3.999,1.789,3.999,3.999C427.896,70.193,426.108,71.982,423.897,71.982z"/>
	<path style="fill:#116FFF;" d="M423.897,7.998H263.936c-2.211,0-3.999-1.789-3.999-3.999S261.725,0,263.936,0h159.961
		c2.211,0,3.999,1.789,3.999,3.999S426.108,7.998,423.897,7.998z"/>
	<path style="fill:#116FFF;" d="M255.938,7.998h-31.992c-2.21,0-3.999-1.789-3.999-3.999S221.736,0,223.946,0h31.992
		c2.211,0,4,1.789,4,3.999S258.149,7.998,255.938,7.998z"/>
	<path style="fill:#116FFF;" d="M223.949,111.972c-1.469,0-2.878-0.809-3.581-2.21c-0.988-1.976-0.188-4.378,1.789-5.366
		l15.996-7.998c1.976-0.977,4.37-0.188,5.366,1.789c0.988,1.976,0.188,4.377-1.789,5.366l-15.996,7.998
		C225.16,111.835,224.551,111.972,223.949,111.972z"/>
	<path style="fill:#116FFF;" d="M255.934,111.972c-0.602,0-1.211-0.137-1.785-0.422l-15.996-7.998
		c-1.976-0.988-2.777-3.39-1.789-5.366c0.992-1.976,3.386-2.765,5.366-1.789l15.997,7.998c1.976,0.988,2.776,3.39,1.788,5.366
		C258.812,111.164,257.403,111.972,255.934,111.972z"/>
	<path style="fill:#116FFF;" d="M239.941,383.906c-10.595,0-20.901-1.773-30.629-5.272c-8.212-2.851-15.859-6.826-22.678-11.817
		c-24.193-17.035-38.67-45.051-38.67-74.888c0-50.718,41.259-91.978,91.978-91.978c50.714,0,91.978,41.26,91.978,91.978
		c0,14.434-3.265,28.274-9.7,41.139C306.582,364.426,275.058,383.906,239.941,383.906z M239.941,207.949
		c-46.305,0-83.979,37.674-83.979,83.979c0,27.243,13.208,52.808,35.335,68.39c6.233,4.562,13.173,8.17,20.679,10.771
		c8.904,3.202,18.296,4.819,27.966,4.819c32.063,0,60.845-17.785,75.123-46.41c5.874-11.756,8.857-24.393,8.857-37.569
		C323.921,245.623,286.243,207.949,239.941,207.949z"/>
	<path style="fill:#116FFF;" d="M188.989,367.589c-0.793,0-1.59-0.234-2.289-0.727c-1.808-1.266-2.249-3.757-0.984-5.568
		l38.952-55.666c1.265-1.805,3.753-2.242,5.568-0.984c1.809,1.273,2.25,3.765,0.984,5.576l-38.951,55.666
		C191.492,366.996,190.25,367.589,188.989,367.589z"/>
	<path style="fill:#116FFF;" d="M242.425,332.715c-1.265,0-2.507-0.602-3.284-1.711l-14.477-20.792
		c-1.266-1.812-0.816-4.311,0.996-5.568c1.808-1.266,4.3-0.812,5.565,0.992l14.477,20.791c1.265,1.812,0.816,4.312-0.996,5.569
		C244.011,332.481,243.214,332.715,242.425,332.715z"/>
	<path style="fill:#116FFF;" d="M210.663,378.868c-0.792,0-1.593-0.234-2.288-0.726c-1.812-1.266-2.25-3.758-0.984-5.569
		l69.261-98.937c1.265-1.812,3.765-2.25,5.568-0.977c1.812,1.266,2.25,3.757,0.984,5.568l-69.261,98.938
		C213.167,378.274,211.925,378.868,210.663,378.868z"/>
	<path style="fill:#116FFF;" d="M318.641,335.277c-1.258,0-2.499-0.594-3.28-1.711l-38.709-55.346
		c-1.266-1.804-0.82-4.295,0.983-5.568c1.812-1.258,4.305-0.828,5.569,0.992l38.71,55.346c1.265,1.804,0.827,4.295-0.984,5.568
		C320.235,335.042,319.438,335.277,318.641,335.277z"/>
	<path style="fill:#116FFF;" d="M207.949,279.931c-11.024,0-19.995-8.967-19.995-19.995c0-11.024,8.971-19.995,19.995-19.995
		s19.995,8.971,19.995,19.995C227.944,270.964,218.974,279.931,207.949,279.931z M207.949,247.939
		c-6.616,0-11.997,5.381-11.997,11.997c0,6.615,5.381,11.997,11.997,11.997c6.615,0,11.997-5.382,11.997-11.997
		C219.946,253.32,214.564,247.939,207.949,247.939z"/>
</g>
<g>
</g>
<g>
</g>
<g>
</g>
<g>
</g>
<g>
</g>
<g>
</g>
<g>
</g>
<g>
</g>
<g>
</g>
<g>
</g>
<g>
</g>
<g>
</g>
<g>
</g>
<g>
</g>
<g>
</g>
</svg>
